<?xml version="1.0" encoding="UTF-8" standalone="no"?>
<!DOCTYPE svg PUBLIC "-//W3C//DTD SVG 1.1//EN"
 "http://www.w3.org/Graphics/SVG/1.1/DTD/svg11.dtd">
<!-- Generated by graphviz version 2.40.1 (20161225.0304)
 -->
<!-- Title: %3 Pages: 1 -->
<svg width="661pt" height="683pt"
 viewBox="0.00 0.00 660.54 682.54" xmlns="http://www.w3.org/2000/svg" xmlns:xlink="http://www.w3.org/1999/xlink">
<g id="graph0" class="graph" transform="scale(1 1) rotate(0) translate(4 678.5433)">
<title>%3</title>
<polygon fill="#ffffff" stroke="transparent" points="-4,4 -4,-678.5433 656.5433,-678.5433 656.5433,4 -4,4"/>
<text text-anchor="middle" x="326.2716" y="-659.3433" font-family="Times,serif" font-size="14.00" fill="#000000">Men&#39;s Singles Tennis Grandslam Champions from 2003</text>
<!-- US Open -->
<g id="node1" class="node">
<title>US Open</title>
<polygon fill="#0000ff" stroke="#000000" points="380.2716,-39.6325 380.2716,-84.3675 348.6392,-116 303.9041,-116 272.2716,-84.3675 272.2716,-39.6325 303.9041,-8 348.6392,-8 380.2716,-39.6325"/>
<polygon fill="none" stroke="#000000" points="384.2716,-37.9756 384.2716,-86.0244 350.296,-120 302.2472,-120 268.2716,-86.0244 268.2716,-37.9756 302.2472,-4 350.296,-4 384.2716,-37.9756"/>
<polygon fill="none" stroke="#000000" points="388.2716,-36.3188 388.2716,-87.6812 351.9529,-124 300.5904,-124 264.2716,-87.6812 264.2716,-36.3188 300.5904,0 351.9529,0 388.2716,-36.3188"/>
<text text-anchor="middle" x="326.2716" y="-57.8" font-family="Times,serif" font-size="14.00" fill="#ffffff">US Open</text>
</g>
<!-- Wimbledon -->
<g id="node2" class="node">
<title>Wimbledon</title>
<polygon fill="#0000ff" stroke="#000000" points="116,-303.9041 116,-348.6392 84.3675,-380.2716 39.6325,-380.2716 8,-348.6392 8,-303.9041 39.6325,-272.2716 84.3675,-272.2716 116,-303.9041"/>
<polygon fill="none" stroke="#000000" points="120,-302.2472 120,-350.296 86.0244,-384.2716 37.9756,-384.2716 4,-350.296 4,-302.2472 37.9756,-268.2716 86.0244,-268.2716 120,-302.2472"/>
<polygon fill="none" stroke="#000000" points="124,-300.5904 124,-351.9529 87.6812,-388.2716 36.3188,-388.2716 0,-351.9529 0,-300.5904 36.3188,-264.2716 87.6812,-264.2716 124,-300.5904"/>
<text text-anchor="middle" x="62" y="-322.0716" font-family="Times,serif" font-size="14.00" fill="#ffffff">Wimbledon</text>
</g>
<!-- French Open -->
<g id="node3" class="node">
<title>French Open</title>
<polygon fill="#0000ff" stroke="#000000" points="644.5433,-303.9041 644.5433,-348.6392 612.9108,-380.2716 568.1757,-380.2716 536.5433,-348.6392 536.5433,-303.9041 568.1757,-272.2716 612.9108,-272.2716 644.5433,-303.9041"/>
<polygon fill="none" stroke="#000000" points="648.5433,-302.2472 648.5433,-350.296 614.5677,-384.2716 566.5189,-384.2716 532.5433,-350.296 532.5433,-302.2472 566.5189,-268.2716 614.5677,-268.2716 648.5433,-302.2472"/>
<polygon fill="none" stroke="#000000" points="652.5433,-300.5904 652.5433,-351.9529 616.2245,-388.2716 564.862,-388.2716 528.5433,-351.9529 528.5433,-300.5904 564.862,-264.2716 616.2245,-264.2716 652.5433,-300.5904"/>
<text text-anchor="middle" x="590.5433" y="-322.0716" font-family="Times,serif" font-size="14.00" fill="#ffffff">French Open</text>
</g>
<!-- Australian Open -->
<g id="node4" class="node">
<title>Australian Open</title>
<polygon fill="#0000ff" stroke="#000000" points="385.8568,-568.1757 385.8568,-612.9108 350.9526,-644.5433 301.5907,-644.5433 266.6865,-612.9108 266.6865,-568.1757 301.5907,-536.5433 350.9526,-536.5433 385.8568,-568.1757"/>
<polygon fill="none" stroke="#000000" points="389.8438,-566.3987 389.8438,-614.6879 352.4868,-648.5433 300.0565,-648.5433 262.6995,-614.6879 262.6995,-566.3987 300.0565,-532.5433 352.4868,-532.5433 389.8438,-566.3987"/>
<polygon fill="none" stroke="#000000" points="393.8308,-564.6216 393.8308,-616.4649 354.0209,-652.5433 298.5224,-652.5433 258.7125,-616.4649 258.7125,-564.6216 298.5224,-528.5433 354.0209,-528.5433 393.8308,-564.6216"/>
<text text-anchor="middle" x="326.2716" y="-586.3433" font-family="Times,serif" font-size="14.00" fill="#ffffff">Australian Open</text>
</g>
<!-- Roger Federer -->
<g id="node5" class="node">
<title>Roger Federer</title>
<ellipse fill="#ffff00" stroke="#000000" cx="139.4034" cy="-513.1399" rx="54" ry="54"/>
<polyline fill="none" stroke="#000000" points="175.119,-553.6399 103.6878,-553.6399 "/>
<polyline fill="none" stroke="#000000" points="175.119,-472.6399 103.6878,-472.6399 "/>
<text text-anchor="middle" x="139.4034" y="-508.9399" font-family="Times,serif" font-size="14.00" fill="#000000">Roger Federer</text>
</g>
<!-- Roger Federer&#45;&#45;US Open -->
<g id="edge45" class="edge">
<title>Roger Federer&#45;&#45;US Open</title>
<path fill="none" stroke="#000000" d="M172.1857,-469.6532C215.8505,-389.108 287.4657,-216.9456 316.2086,-124.1467"/>
</g>
<!-- Roger Federer&#45;&#45;US Open -->
<g id="edge49" class="edge">
<title>Roger Federer&#45;&#45;US Open</title>
<path fill="none" stroke="#000000" d="M146.9725,-459.2096C173.0508,-371.3798 244.1485,-199.003 289.4429,-113.06"/>
</g>
<!-- Roger Federer&#45;&#45;US Open -->
<g id="edge53" class="edge">
<title>Roger Federer&#45;&#45;US Open</title>
<path fill="none" stroke="#000000" d="M153.5881,-460.9401C183.9318,-375.4941 253.7202,-206.5722 294.9092,-118.4471"/>
</g>
<!-- Roger Federer&#45;&#45;US Open -->
<g id="edge57" class="edge">
<title>Roger Federer&#45;&#45;US Open</title>
<path fill="none" stroke="#000000" d="M160.1155,-463.1363C194.4675,-380.2033 263.1418,-214.409 300.5466,-124.1058"/>
</g>
<!-- Roger Federer&#45;&#45;US Open -->
<g id="edge61" class="edge">
<title>Roger Federer&#45;&#45;US Open</title>
<path fill="none" stroke="#000000" d="M166.2841,-466.199C205.2473,-384.3232 275.3453,-215.5296 308.5341,-124.0907"/>
</g>
<!-- Roger Federer&#45;&#45;Wimbledon -->
<g id="edge10" class="edge">
<title>Roger Federer&#45;&#45;Wimbledon</title>
<path fill="none" stroke="#000000" d="M151.0846,-460.2563C145.7574,-429.2332 130.6313,-391.1041 112.9004,-363.2375"/>
</g>
<!-- Roger Federer&#45;&#45;Wimbledon -->
<g id="edge30" class="edge">
<title>Roger Federer&#45;&#45;Wimbledon</title>
<path fill="none" stroke="#000000" d="M93.7492,-484.0054C75.5794,-458.3019 59.3138,-420.6447 52.1468,-388.4025"/>
</g>
<!-- Roger Federer&#45;&#45;Wimbledon -->
<g id="edge42" class="edge">
<title>Roger Federer&#45;&#45;Wimbledon</title>
<path fill="none" stroke="#000000" d="M99.5465,-476.6524C84.6849,-451.5507 70.3092,-417.7887 61.8769,-388.5421"/>
</g>
<!-- Roger Federer&#45;&#45;Wimbledon -->
<g id="edge50" class="edge">
<title>Roger Federer&#45;&#45;Wimbledon</title>
<path fill="none" stroke="#000000" d="M106.3217,-469.8931C94.0387,-445.7143 81.1869,-415.2076 71.9666,-388.5131"/>
</g>
<!-- Roger Federer&#45;&#45;Wimbledon -->
<g id="edge54" class="edge">
<title>Roger Federer&#45;&#45;Wimbledon</title>
<path fill="none" stroke="#000000" d="M114.308,-464.8656C103.9635,-441.5387 92.1711,-413.271 82.3687,-388.3624"/>
</g>
<!-- Roger Federer&#45;&#45;Wimbledon -->
<g id="edge58" class="edge">
<title>Roger Federer&#45;&#45;Wimbledon</title>
<path fill="none" stroke="#000000" d="M123.0134,-461.2597C113.8334,-437.4504 102.1837,-409.1237 91.502,-384.5793"/>
</g>
<!-- Roger Federer&#45;&#45;Wimbledon -->
<g id="edge62" class="edge">
<title>Roger Federer&#45;&#45;Wimbledon</title>
<path fill="none" stroke="#000000" d="M132.2974,-459.4187C123.8637,-433.5187 111.2964,-402.652 98.8693,-377.1361"/>
</g>
<!-- Roger Federer&#45;&#45;Wimbledon -->
<g id="edge66" class="edge">
<title>Roger Federer&#45;&#45;Wimbledon</title>
<path fill="none" stroke="#000000" d="M141.7859,-459.1562C134.5451,-430.898 120.8369,-396.8595 106.1189,-370.2164"/>
</g>
<!-- Roger Federer&#45;&#45;French Open -->
<g id="edge43" class="edge">
<title>Roger Federer&#45;&#45;French Open</title>
<path fill="none" stroke="#000000" d="M189.4069,-492.4277C272.34,-458.0757 438.1343,-389.4015 528.4374,-351.9967"/>
</g>
<!-- Roger Federer&#45;&#45;Australian Open -->
<g id="edge8" class="edge">
<title>Roger Federer&#45;&#45;Australian Open</title>
<path fill="none" stroke="#000000" d="M175.8909,-552.9968C199.4681,-566.9558 230.6858,-580.4863 258.6259,-589.0656"/>
</g>
<!-- Roger Federer&#45;&#45;Australian Open -->
<g id="edge12" class="edge">
<title>Roger Federer&#45;&#45;Australian Open</title>
<path fill="none" stroke="#000000" d="M193.387,-510.7574C220.8444,-517.793 253.7591,-530.9346 280.0441,-545.1756"/>
</g>
<!-- Roger Federer&#45;&#45;Australian Open -->
<g id="edge40" class="edge">
<title>Roger Federer&#45;&#45;Australian Open</title>
<path fill="none" stroke="#000000" d="M193.1246,-520.2459C217.9082,-528.3161 247.2396,-540.1712 272.0787,-552.0666"/>
</g>
<!-- Roger Federer&#45;&#45;Australian Open -->
<g id="edge52" class="edge">
<title>Roger Federer&#45;&#45;Australian Open</title>
<path fill="none" stroke="#000000" d="M191.2836,-529.5299C213.8915,-538.2466 240.5725,-549.1902 264.2208,-559.4174"/>
</g>
<!-- Roger Federer&#45;&#45;Australian Open -->
<g id="edge56" class="edge">
<title>Roger Federer&#45;&#45;Australian Open</title>
<path fill="none" stroke="#000000" d="M187.6777,-538.2353C209.2925,-547.8206 235.1495,-558.649 258.6454,-567.9855"/>
</g>
<!-- Roger Federer&#45;&#45;Australian Open -->
<g id="edge64" class="edge">
<title>Roger Federer&#45;&#45;Australian Open</title>
<path fill="none" stroke="#000000" d="M182.6502,-546.2216C205.1543,-557.6538 233.14,-569.5787 258.4318,-578.6099"/>
</g>
<!-- Rafael Nadal -->
<g id="node6" class="node">
<title>Rafael Nadal</title>
<ellipse fill="#ffff00" stroke="#000000" cx="513.1399" cy="-139.4034" rx="54" ry="54"/>
<polyline fill="none" stroke="#000000" points="548.8555,-179.9034 477.4243,-179.9034 "/>
<polyline fill="none" stroke="#000000" points="548.8555,-98.9034 477.4243,-98.9034 "/>
<text text-anchor="middle" x="513.1399" y="-135.2034" font-family="Times,serif" font-size="14.00" fill="#000000">Rafael Nadal</text>
</g>
<!-- Rafael Nadal&#45;&#45;US Open -->
<g id="edge1" class="edge">
<title>Rafael Nadal&#45;&#45;US Open</title>
<path fill="none" stroke="#000000" d="M469.8931,-106.3217C445.7143,-94.0387 415.2076,-81.1869 388.5131,-71.9666"/>
</g>
<!-- Rafael Nadal&#45;&#45;US Open -->
<g id="edge9" class="edge">
<title>Rafael Nadal&#45;&#45;US Open</title>
<path fill="none" stroke="#000000" d="M459.4187,-132.2974C433.5187,-123.8637 402.652,-111.2964 377.1361,-98.8693"/>
</g>
<!-- Rafael Nadal&#45;&#45;US Open -->
<g id="edge25" class="edge">
<title>Rafael Nadal&#45;&#45;US Open</title>
<path fill="none" stroke="#000000" d="M461.2597,-123.0134C437.4504,-113.8334 409.1237,-102.1837 384.5793,-91.502"/>
</g>
<!-- Rafael Nadal&#45;&#45;US Open -->
<g id="edge37" class="edge">
<title>Rafael Nadal&#45;&#45;US Open</title>
<path fill="none" stroke="#000000" d="M464.8656,-114.308C441.5387,-103.9635 413.271,-92.1711 388.3624,-82.3687"/>
</g>
<!-- Rafael Nadal&#45;&#45;Wimbledon -->
<g id="edge38" class="edge">
<title>Rafael Nadal&#45;&#45;Wimbledon</title>
<path fill="none" stroke="#000000" d="M461.817,-156.9304C377.5415,-189.3391 210.3344,-258.5007 121.1908,-297.7286"/>
</g>
<!-- Rafael Nadal&#45;&#45;Wimbledon -->
<g id="edge46" class="edge">
<title>Rafael Nadal&#45;&#45;Wimbledon</title>
<path fill="none" stroke="#000000" d="M464.4556,-163.3007C381.9474,-199.976 214.8095,-269.3047 124.0372,-304.6004"/>
</g>
<!-- Rafael Nadal&#45;&#45;French Open -->
<g id="edge3" class="edge">
<title>Rafael Nadal&#45;&#45;French Open</title>
<path fill="none" stroke="#000000" d="M485.1816,-185.6742C482.4657,-223.4526 501.3587,-273.7061 528.2964,-303.6882"/>
</g>
<!-- Rafael Nadal&#45;&#45;French Open -->
<g id="edge7" class="edge">
<title>Rafael Nadal&#45;&#45;French Open</title>
<path fill="none" stroke="#000000" d="M565.6278,-152.3522C594.2616,-177.1453 616.4369,-226.0391 618.5895,-266.2875"/>
</g>
<!-- Rafael Nadal&#45;&#45;French Open -->
<g id="edge11" class="edge">
<title>Rafael Nadal&#45;&#45;French Open</title>
<path fill="none" stroke="#000000" d="M563.029,-160.433C585.5167,-185.9801 604.2436,-228.2042 609.6295,-263.977"/>
</g>
<!-- Rafael Nadal&#45;&#45;French Open -->
<g id="edge23" class="edge">
<title>Rafael Nadal&#45;&#45;French Open</title>
<path fill="none" stroke="#000000" d="M558.7941,-168.5379C576.9639,-194.2414 593.2295,-231.8986 600.3965,-264.1408"/>
</g>
<!-- Rafael Nadal&#45;&#45;French Open -->
<g id="edge27" class="edge">
<title>Rafael Nadal&#45;&#45;French Open</title>
<path fill="none" stroke="#000000" d="M552.9968,-175.8909C567.8584,-200.9925 582.2341,-234.7545 590.6664,-264.0012"/>
</g>
<!-- Rafael Nadal&#45;&#45;French Open -->
<g id="edge31" class="edge">
<title>Rafael Nadal&#45;&#45;French Open</title>
<path fill="none" stroke="#000000" d="M546.2216,-182.6502C558.5046,-206.829 571.3563,-237.3357 580.5766,-264.0302"/>
</g>
<!-- Rafael Nadal&#45;&#45;French Open -->
<g id="edge35" class="edge">
<title>Rafael Nadal&#45;&#45;French Open</title>
<path fill="none" stroke="#000000" d="M538.2353,-187.6777C548.5798,-211.0046 560.3722,-239.2723 570.1746,-264.1809"/>
</g>
<!-- Rafael Nadal&#45;&#45;French Open -->
<g id="edge39" class="edge">
<title>Rafael Nadal&#45;&#45;French Open</title>
<path fill="none" stroke="#000000" d="M529.5299,-191.2836C538.7098,-215.0929 550.3596,-243.4196 561.0413,-267.964"/>
</g>
<!-- Rafael Nadal&#45;&#45;French Open -->
<g id="edge47" class="edge">
<title>Rafael Nadal&#45;&#45;French Open</title>
<path fill="none" stroke="#000000" d="M520.2459,-193.1246C528.6796,-219.0245 541.2469,-249.8913 553.674,-275.4071"/>
</g>
<!-- Rafael Nadal&#45;&#45;French Open -->
<g id="edge51" class="edge">
<title>Rafael Nadal&#45;&#45;French Open</title>
<path fill="none" stroke="#000000" d="M510.7574,-193.387C517.9982,-221.6453 531.7064,-255.6838 546.4244,-282.3268"/>
</g>
<!-- Rafael Nadal&#45;&#45;French Open -->
<g id="edge55" class="edge">
<title>Rafael Nadal&#45;&#45;French Open</title>
<path fill="none" stroke="#000000" d="M501.4587,-192.2869C506.7859,-223.3101 521.912,-261.4392 539.6428,-289.3057"/>
</g>
<!-- Rafael Nadal&#45;&#45;French Open -->
<g id="edge59" class="edge">
<title>Rafael Nadal&#45;&#45;French Open</title>
<path fill="none" stroke="#000000" d="M492.7332,-189.5505C494.8965,-223.5162 511.5116,-266.615 532.9983,-295.7187"/>
</g>
<!-- Rafael Nadal&#45;&#45;Australian Open -->
<g id="edge44" class="edge">
<title>Rafael Nadal&#45;&#45;Australian Open</title>
<path fill="none" stroke="#000000" d="M492.4277,-189.4069C458.0757,-272.34 389.4015,-438.1343 351.9967,-528.4374"/>
</g>
<!-- Novak Djokovic -->
<g id="node7" class="node">
<title>Novak Djokovic</title>
<ellipse fill="#ffff00" stroke="#000000" cx="139.4034" cy="-139.4034" rx="55.7609" ry="55.7609"/>
<polyline fill="none" stroke="#000000" points="176.1972,-181.1261 102.6095,-181.1261 "/>
<polyline fill="none" stroke="#000000" points="176.1972,-97.6807 102.6095,-97.6807 "/>
<text text-anchor="middle" x="139.4034" y="-135.2034" font-family="Times,serif" font-size="14.00" fill="#000000">Novak Djokovic</text>
</g>
<!-- Novak Djokovic&#45;&#45;US Open -->
<g id="edge5" class="edge">
<title>Novak Djokovic&#45;&#45;US Open</title>
<path fill="none" stroke="#000000" d="M193.84,-127.0963C218.3131,-118.3171 247.1231,-106.5109 271.6209,-95.2603"/>
</g>
<!-- Novak Djokovic&#45;&#45;US Open -->
<g id="edge17" class="edge">
<title>Novak Djokovic&#45;&#45;US Open</title>
<path fill="none" stroke="#000000" d="M186.8402,-109.4992C210.3538,-98.4121 239.0293,-86.4137 264.2563,-77.0707"/>
</g>
<!-- Novak Djokovic&#45;&#45;US Open -->
<g id="edge33" class="edge">
<title>Novak Djokovic&#45;&#45;US Open</title>
<path fill="none" stroke="#000000" d="M190.9606,-118.0477C213.6471,-108.6506 240.4867,-97.5333 264.2561,-87.6877"/>
</g>
<!-- Novak Djokovic&#45;&#45;Wimbledon -->
<g id="edge2" class="edge">
<title>Novak Djokovic&#45;&#45;Wimbledon</title>
<path fill="none" stroke="#000000" d="M102.006,-180.8626C88.742,-205.3952 75.494,-236.8433 66.798,-264.256"/>
</g>
<!-- Novak Djokovic&#45;&#45;Wimbledon -->
<g id="edge6" class="edge">
<title>Novak Djokovic&#45;&#45;Wimbledon</title>
<path fill="none" stroke="#000000" d="M136.5312,-195.1634C128.5631,-221.8896 115.6937,-253.4946 102.459,-279.0273"/>
</g>
<!-- Novak Djokovic&#45;&#45;Wimbledon -->
<g id="edge18" class="edge">
<title>Novak Djokovic&#45;&#45;Wimbledon</title>
<path fill="none" stroke="#000000" d="M127.0963,-193.84C118.3171,-218.3131 106.5109,-247.1231 95.2603,-271.6209"/>
</g>
<!-- Novak Djokovic&#45;&#45;Wimbledon -->
<g id="edge22" class="edge">
<title>Novak Djokovic&#45;&#45;Wimbledon</title>
<path fill="none" stroke="#000000" d="M118.0477,-190.9606C108.6506,-213.6471 97.5333,-240.4867 87.6877,-264.2561"/>
</g>
<!-- Novak Djokovic&#45;&#45;Wimbledon -->
<g id="edge34" class="edge">
<title>Novak Djokovic&#45;&#45;Wimbledon</title>
<path fill="none" stroke="#000000" d="M109.4992,-186.8402C98.4121,-210.3538 86.4137,-239.0293 77.0707,-264.2563"/>
</g>
<!-- Novak Djokovic&#45;&#45;French Open -->
<g id="edge15" class="edge">
<title>Novak Djokovic&#45;&#45;French Open</title>
<path fill="none" stroke="#000000" d="M191.1549,-160.8395C274.5908,-195.3998 438.5324,-263.3067 528.2472,-300.4678"/>
</g>
<!-- Novak Djokovic&#45;&#45;Australian Open -->
<g id="edge4" class="edge">
<title>Novak Djokovic&#45;&#45;Australian Open</title>
<path fill="none" stroke="#000000" d="M140.4497,-195.033C161.8768,-284.4583 233.2094,-457.8812 282.8123,-542.3585"/>
</g>
<!-- Novak Djokovic&#45;&#45;Australian Open -->
<g id="edge16" class="edge">
<title>Novak Djokovic&#45;&#45;Australian Open</title>
<path fill="none" stroke="#000000" d="M177.9996,-179.4793C226.5365,-258.6053 299.6382,-434.2148 323.6172,-528.4105"/>
</g>
<!-- Novak Djokovic&#45;&#45;Australian Open -->
<g id="edge20" class="edge">
<title>Novak Djokovic&#45;&#45;Australian Open</title>
<path fill="none" stroke="#000000" d="M172.856,-184.1297C216.5831,-265.1952 287.6225,-436.0956 316.2147,-528.4165"/>
</g>
<!-- Novak Djokovic&#45;&#45;Australian Open -->
<g id="edge28" class="edge">
<title>Novak Djokovic&#45;&#45;Australian Open</title>
<path fill="none" stroke="#000000" d="M167.0941,-188.0495C206.1822,-270.4807 275.4692,-437.3914 308.4593,-528.2466"/>
</g>
<!-- Novak Djokovic&#45;&#45;Australian Open -->
<g id="edge32" class="edge">
<title>Novak Djokovic&#45;&#45;Australian Open</title>
<path fill="none" stroke="#000000" d="M160.8395,-191.1549C195.3998,-274.5908 263.3067,-438.5324 300.4678,-528.2472"/>
</g>
<!-- Novak Djokovic&#45;&#45;Australian Open -->
<g id="edge36" class="edge">
<title>Novak Djokovic&#45;&#45;Australian Open</title>
<path fill="none" stroke="#000000" d="M154.2211,-193.3817C184.7011,-278.8373 253.1433,-444.4954 294.1403,-532.449"/>
</g>
<!-- Novak Djokovic&#45;&#45;Australian Open -->
<g id="edge48" class="edge">
<title>Novak Djokovic&#45;&#45;Australian Open</title>
<path fill="none" stroke="#000000" d="M147.375,-194.6842C173.5627,-282.2085 243.2444,-451.2269 288.3485,-537.3995"/>
</g>
<!-- Others -->
<g id="node8" class="node">
<title>Others</title>
<ellipse fill="#ffff00" stroke="#000000" cx="513.1399" cy="-513.1399" rx="54" ry="54"/>
<polyline fill="none" stroke="#000000" points="548.8555,-553.6399 477.4243,-553.6399 "/>
<polyline fill="none" stroke="#000000" points="548.8555,-472.6399 477.4243,-472.6399 "/>
<text text-anchor="middle" x="513.1399" y="-508.9399" font-family="Times,serif" font-size="14.00" fill="#000000">Others</text>
</g>
<!-- Others&#45;&#45;US Open -->
<g id="edge13" class="edge">
<title>Others&#45;&#45;US Open</title>
<path fill="none" stroke="#000000" d="M505.5708,-459.2096C479.4924,-371.3798 408.3947,-199.003 363.1003,-113.06"/>
</g>
<!-- Others&#45;&#45;US Open -->
<g id="edge21" class="edge">
<title>Others&#45;&#45;US Open</title>
<path fill="none" stroke="#000000" d="M480.3576,-469.6532C436.6927,-389.108 365.0776,-216.9456 336.3347,-124.1467"/>
</g>
<!-- Others&#45;&#45;US Open -->
<g id="edge29" class="edge">
<title>Others&#45;&#45;US Open</title>
<path fill="none" stroke="#000000" d="M486.2592,-466.199C447.296,-384.3232 377.198,-215.5296 344.0091,-124.0907"/>
</g>
<!-- Others&#45;&#45;US Open -->
<g id="edge41" class="edge">
<title>Others&#45;&#45;US Open</title>
<path fill="none" stroke="#000000" d="M492.4277,-463.1363C458.0757,-380.2033 389.4015,-214.409 351.9967,-124.1058"/>
</g>
<!-- Others&#45;&#45;US Open -->
<g id="edge65" class="edge">
<title>Others&#45;&#45;US Open</title>
<path fill="none" stroke="#000000" d="M498.9552,-460.9401C468.6114,-375.4941 398.8231,-206.5722 357.6341,-118.4471"/>
</g>
<!-- Others&#45;&#45;Wimbledon -->
<g id="edge14" class="edge">
<title>Others&#45;&#45;Wimbledon</title>
<path fill="none" stroke="#000000" d="M464.4556,-489.2426C381.9474,-452.5673 214.8095,-383.2385 124.0372,-347.9429"/>
</g>
<!-- Others&#45;&#45;Wimbledon -->
<g id="edge26" class="edge">
<title>Others&#45;&#45;Wimbledon</title>
<path fill="none" stroke="#000000" d="M461.817,-495.6129C377.5415,-463.2041 210.3344,-394.0426 121.1908,-354.8147"/>
</g>
<!-- Others&#45;&#45;French Open -->
<g id="edge19" class="edge">
<title>Others&#45;&#45;French Open</title>
<path fill="none" stroke="#000000" d="M542.3604,-467.149C553.6075,-443.4319 565.8751,-414.1814 575.4003,-388.4818"/>
</g>
<!-- Others&#45;&#45;French Open -->
<g id="edge63" class="edge">
<title>Others&#45;&#45;French Open</title>
<path fill="none" stroke="#000000" d="M524.9093,-460.2073C533.7576,-435.3684 545.848,-405.809 557.35,-380.7763"/>
</g>
<!-- Others&#45;&#45;French Open -->
<g id="edge67" class="edge">
<title>Others&#45;&#45;French Open</title>
<path fill="none" stroke="#000000" d="M533.8826,-463.0626C543.3761,-440.1432 554.7222,-412.7514 564.759,-388.5204"/>
</g>
<!-- Others&#45;&#45;Australian Open -->
<g id="edge24" class="edge">
<title>Others&#45;&#45;Australian Open</title>
<path fill="none" stroke="#000000" d="M460.2073,-524.9093C436.4724,-533.3644 408.4272,-544.7797 384.14,-555.8133"/>
</g>
<!-- Others&#45;&#45;Australian Open -->
<g id="edge60" class="edge">
<title>Others&#45;&#45;Australian Open</title>
<path fill="none" stroke="#000000" d="M467.149,-542.3604C445.126,-552.8041 418.3319,-564.1278 394.0399,-573.3186"/>
</g>
<!-- Others&#45;&#45;Australian Open -->
<g id="edge68" class="edge">
<title>Others&#45;&#45;Australian Open</title>
<path fill="none" stroke="#000000" d="M463.0626,-533.8826C441.3324,-542.8835 415.5819,-553.5498 392.3167,-563.1865"/>
</g>
</g>
</svg>